<?xml version="1.0" encoding="UTF-8"?>
<svg version="1.1" xmlns="http://www.w3.org/2000/svg" viewBox="560 500 1060 780">
<path d="M0 0 C3.09573297 0.00849676 6.18960449 -0.02034959 9.28515625 -0.05200195 C65.060163 -0.24651953 115.50289465 28.02947232 158.36328125 61.44604492 C158.88728516 61.85209961 159.41128906 62.2581543 159.95117188 62.67651367 C164.11260806 65.90295896 168.24537039 69.16426889 172.36328125 72.44604492 C173.02440918 72.97278809 173.68553711 73.49953125 174.36669922 74.04223633 C182.11739284 80.2350571 189.70984591 86.51333286 196.9921875 93.25463867 C199.06502046 95.17038709 201.16634184 97.03718936 203.30078125 98.88354492 C208.2183075 103.16009015 212.9967696 107.58781302 217.79003906 112.00219727 C219.33797489 113.42281994 220.89237939 114.83597143 222.44921875 116.24682617 C228.0592878 121.33970576 233.53189411 126.52724254 238.81640625 131.96166992 C240.80917953 133.90554079 242.81735823 135.7102847 244.9296875 137.51635742 C250.57936789 142.41671178 255.78829272 147.76410828 261.05078125 153.07104492 C262.07984078 154.10513534 263.10913632 155.13899094 264.13867188 156.17260742 C266.0310052 158.07302349 267.92169335 159.97502092 269.8112793 161.87817383 C271.55584691 163.63358971 273.30535351 165.38410727 275.05908203 167.13037109 C277.31414079 169.39665975 279.43769664 171.73501549 281.55078125 174.13354492 C285.55144889 178.61349388 289.74343346 182.84777176 294.015625 187.06713867 C296.71559083 189.80304415 299.22084973 192.66367178 301.71875 195.58276367 C303.36726877 197.45056285 305.08631706 199.20060116 306.86328125 200.94604492 C309.90444698 203.93990363 312.71728738 207.07491486 315.50390625 210.30541992 C317.46911498 212.56788711 319.47462588 214.78911455 321.48828125 217.00854492 C330.64774657 227.16326623 339.50924185 237.58675795 348.39453125 247.98120117 C350.38571162 250.3092798 352.38634137 252.62871942 354.39453125 254.94213867 C359.86609594 261.25873266 365.16708581 267.66295724 370.28930664 274.26635742 C373.38621301 278.24499482 376.58356879 282.11709832 379.86328125 285.94604492 C384.07380754 290.86664581 388.11823463 295.89193348 392.09545898 301.00244141 C395.64460989 305.55541792 399.27208475 310.03918162 402.92578125 314.50854492 C408.02671124 320.76206392 413.00859939 327.08566521 417.890625 333.51245117 C419.61486638 335.77637553 421.34845719 338.03300937 423.08203125 340.28979492 C430.59191432 350.08288588 437.96300897 359.95463803 445.15234375 369.98510742 C448.51363486 374.67023011 451.93527241 379.30962168 455.36328125 383.94604492 C465.01873827 397.02711567 474.5552845 410.16342259 483.69287109 423.61303711 C486.91715715 428.35400069 490.19506457 433.04731808 493.55078125 437.69604492 C498.21680506 444.17263911 502.64751384 450.79141709 507.04492188 457.45239258 C508.8636207 460.20266935 510.69331173 462.94555079 512.5234375 465.68823242 C513.51102433 467.16829588 514.49799024 468.64877382 515.484375 470.12963867 C518.37935637 474.4757568 521.28169953 478.81680088 524.19140625 483.15307617 C532.55026583 495.62525141 540.74228845 508.18687675 548.74902344 520.88793945 C550.27430815 523.30504974 551.80581469 525.71807131 553.33984375 528.12963867 C561.45272795 540.89893344 569.38763431 553.77707266 577.28344727 566.68145752 C578.38571176 568.48269926 579.48875175 570.28346473 580.59179688 572.08422852 C584.93602888 579.18031713 589.25730671 586.28961063 593.54394531 593.4206543 C594.66431618 595.28372942 595.78795561 597.14484912 596.91699219 599.00268555 C606.24204275 614.39662991 611.50349073 630.37401878 607.59765625 648.42260742 C606.67423158 651.84514172 605.61087465 655.12927222 604.36328125 658.44604492 C603.94755859 659.5965332 603.94755859 659.5965332 603.5234375 660.77026367 C598.93155403 671.54108711 588.70660664 677.94428672 578.36328125 682.44604492 C565.58328779 685.49259946 549.70651021 685.35775517 538.36328125 678.44604492 C537.56148437 677.98842773 536.7596875 677.53081055 535.93359375 677.05932617 C526.23404295 671.09916448 520.24129153 663.32056268 514.59570312 653.5690918 C513.17311543 651.1184534 511.73007812 648.68045561 510.28515625 646.24291992 C508.02533199 642.42921709 505.77022733 638.61279826 503.51953125 634.79370117 C499.50578603 627.98773355 495.44985425 621.2084793 491.36328125 614.44604492 C490.84652832 613.58897949 490.32977539 612.73191406 489.79736328 611.84887695 C482.64504258 599.99500221 475.39993981 588.22403657 467.8046875 576.64868164 C466.30587766 574.35832555 464.81801805 572.06114549 463.33203125 569.76245117 C454.74384214 556.50073653 445.99821646 543.34469798 437.23828125 530.19604492 C436.64967316 529.31183868 436.06106506 528.42763245 435.45462036 527.51663208 C423.80895166 510.02795907 411.99993155 492.66439473 399.83837891 475.5300293 C398.36533658 473.44894864 396.90022096 471.36251544 395.4375 469.27416992 C384.55114312 453.74624498 373.22851609 438.54502561 361.82666016 423.39331055 C360.35024667 421.42870027 358.87766753 419.46127418 357.40625 417.49291992 C347.48481053 404.22362562 337.52929038 391.0022833 327.02758789 378.18432617 C323.73291884 374.15634525 320.51813611 370.08456212 317.36328125 365.94604492 C312.0107638 358.93120091 306.44509349 352.09776226 300.85595703 345.27075195 C299.54141923 343.66380796 298.23129823 342.05325302 296.921875 340.44213867 C288.26413105 329.80194173 279.3380542 319.3885126 270.3984375 308.98510742 C268.37757019 306.63230081 266.36516566 304.27265281 264.359375 301.90698242 C258.44512428 294.94377095 252.39168353 288.1459423 246.1640625 281.46166992 C243.69996408 278.81662079 241.27442487 276.13957473 238.86328125 273.44604492 C231.51304024 265.25539523 224.13367674 257.10510055 216.27845764 249.3936615 C214.50009877 247.58517993 212.84832414 245.72655388 211.20483398 243.79589844 C207.07419812 239.04622344 202.66589259 234.60476158 198.2109375 230.16088867 C197.35197372 229.30096817 196.49300995 228.44104767 195.60801697 227.55506897 C193.8015111 225.74788631 191.99375663 223.941951 190.18481445 222.13720703 C187.43391315 219.39166099 184.68838904 216.64081947 181.94335938 213.8894043 C180.17870593 212.12541173 178.41374228 210.36172942 176.6484375 208.59838867 C175.83673599 207.78466293 175.02503448 206.97093719 174.18873596 206.1325531 C169.96560226 201.92653803 165.67453328 197.86671884 161.14581299 193.99046326 C158.02181269 191.28377185 155.05020646 188.41403391 152.05078125 185.57104492 C146.85224694 180.67754644 141.54337772 176.03494372 135.9609375 171.57885742 C133.22773239 169.33475217 130.64191532 166.9773674 128.05078125 164.57104492 C122.38963639 159.37366617 116.43019783 154.66848768 110.34667969 149.98364258 C108.21796375 148.33338988 106.1062204 146.66296114 103.99609375 144.98901367 C70.76277297 118.69852742 33.01921066 96.3961629 -10.8515625 100.66137695 C-53.29301701 105.86776581 -91.33102614 139.14554248 -122.45166016 166.01293945 C-125.89686631 168.98087134 -129.38934808 171.86543456 -132.94921875 174.69604492 C-139.49366611 180.00130698 -145.52301094 185.85103966 -151.625 191.65307617 C-154.66293695 194.53872851 -157.74488204 197.36073308 -160.88671875 200.13354492 C-165.42485653 204.16830564 -169.67710923 208.45680914 -173.94433594 212.77294922 C-177.50749659 216.36213773 -181.16918927 219.7648503 -185.015625 223.05151367 C-188.77988518 226.28968448 -192.04999234 229.91514051 -195.32421875 233.63354492 C-200.66083598 239.61811567 -206.3628693 245.22667455 -212.0769043 250.84912109 C-216.26953729 254.99454895 -220.26545099 259.2246212 -224.10888672 263.69555664 C-226.02010402 265.88530225 -228.05113437 267.92271679 -230.13671875 269.94604492 C-233.52598968 273.29524002 -236.72070662 276.73480858 -239.82421875 280.34838867 C-241.89522216 282.74521805 -244.01275093 285.09604674 -246.13671875 287.44604492 C-263.13593822 306.30232198 -279.54315543 325.75370503 -295.359375 345.61010742 C-297.08586703 347.76007862 -298.82257366 349.89939472 -300.5703125 352.03198242 C-306.81721948 359.66083875 -312.93031149 367.36858665 -318.89453125 375.22070312 C-322.33121327 379.74487033 -325.80460117 384.2361144 -329.32421875 388.69604492 C-338.20413702 399.96530693 -346.83629679 411.38594665 -355.328125 422.94995117 C-357.91041949 426.46463972 -360.51289617 429.96227304 -363.13671875 433.44604492 C-377.41245579 452.42748787 -391.42274509 471.59873807 -404.7734375 491.24291992 C-406.92890369 494.41440496 -409.1105557 497.56477447 -411.32421875 500.69604492 C-413.95726863 504.43701849 -416.50773502 508.22963199 -419.0390625 512.03979492 C-419.93352753 513.38396867 -420.82814776 514.72803916 -421.72290039 516.07202148 C-422.1959964 516.78265747 -422.66909241 517.49329346 -423.15652466 518.22546387 C-425.19073207 521.27717341 -427.2308422 524.32491463 -429.27122498 527.37249756 C-431.46256486 530.64608203 -433.65149041 533.92127794 -435.84033203 537.1965332 C-436.95017448 538.8562713 -438.06084518 540.51545587 -439.17236328 542.17407227 C-446.26768609 552.76370033 -453.21510387 563.42864692 -459.97875977 574.23339844 C-462.49261163 578.24035273 -465.08526224 582.19142727 -467.69921875 586.13354492 C-473.51627696 595.01292768 -478.86405906 604.17269478 -484.26049805 613.31063843 C-490.78226176 624.35407095 -497.4150617 635.31569351 -504.22851562 646.18237305 C-505.62767037 648.43149975 -507.00248058 650.69385216 -508.37109375 652.96166992 C-517.13904256 667.43197707 -525.94184686 678.01723946 -542.91552734 682.8527832 C-547.60895105 683.876022 -552.22232888 683.9776119 -557.01171875 683.94604492 C-558.02250488 683.94032471 -559.03329102 683.93460449 -560.07470703 683.92871094 C-571.99697722 683.64347538 -580.98648302 679.68272357 -589.63671875 671.44604492 C-599.2645006 661.29071338 -603.1117508 647.07810343 -602.8828125 633.42260742 C-601.91370908 617.76312677 -595.25875779 605.71776194 -587.13671875 592.63354492 C-585.89438034 590.61280436 -584.65219715 588.59196836 -583.41015625 586.57104492 C-582.78206055 585.55268555 -582.15396484 584.53432617 -581.50683594 583.48510742 C-579.14641765 579.64927363 -576.80798532 575.80035493 -574.47143555 571.94995117 C-572.14240114 568.11334673 -569.80558801 564.28150816 -567.46826172 560.44995117 C-566.22387142 558.40903166 -564.98075213 556.36733676 -563.73876953 554.32495117 C-554.93129065 539.85030145 -545.90815235 525.54527255 -536.56958008 511.40740967 C-533.54448201 506.82720035 -530.53158138 502.23909673 -527.52206421 497.64863586 C-502.15106675 458.95387032 -502.15106675 458.95387032 -489.45361328 441.0222168 C-486.73410266 437.16622701 -484.04866157 433.2867887 -481.36010742 429.40917969 C-472.03160347 415.95855148 -462.55067156 402.64591297 -452.81689453 389.4855957 C-449.29171114 384.7138536 -445.81357943 379.9137654 -442.38671875 375.07104492 C-438.5605297 369.67736253 -434.58680762 364.41095761 -430.53125 359.18823242 C-427.59112794 355.39920929 -424.69136907 351.57993574 -421.7902832 347.76098633 C-415.24753693 339.14885305 -408.65747684 330.58072197 -401.94433594 322.10083008 C-400.07979815 319.74126377 -398.2251188 317.37400759 -396.36962891 315.00732422 C-391.49474415 308.79096637 -386.58170511 302.60684405 -381.63671875 296.44604492 C-380.9921875 295.63780273 -380.34765625 294.82956055 -379.68359375 293.99682617 C-372.49597768 284.98400839 -365.1970197 276.07389281 -357.72998047 267.29150391 C-354.76052228 263.79315974 -351.84073616 260.25942955 -348.94921875 256.69604492 C-345.57625166 252.5534882 -342.10228151 248.52792835 -338.53125 244.55541992 C-336.73500782 242.55548017 -334.96361222 240.5365834 -333.19921875 238.50854492 C-329.78346057 234.59481744 -326.30439984 230.7399618 -322.82421875 226.88354492 C-320.91117726 224.75187012 -319.01784263 222.60585382 -317.13671875 220.44604492 C-306.52207466 208.27328794 -295.53730608 196.42549368 -284.46630859 184.66821289 C-281.64036806 181.66384133 -278.82511998 178.65258691 -276.04541016 175.60522461 C-268.55038896 167.3893434 -260.80189294 159.45618333 -252.92626953 151.60522461 C-250.87154367 149.55590981 -248.82228772 147.50123229 -246.7734375 145.44604492 C-245.4417271 144.11499467 -244.10970687 142.78425431 -242.77734375 141.45385742 C-241.87861542 140.55209274 -241.87861542 140.55209274 -240.96173096 139.6321106 C-237.24594454 135.93647318 -233.40802019 132.43588354 -229.43055725 129.02313232 C-226.75582211 126.6715878 -224.29773338 124.13022426 -221.82421875 121.57104492 C-217.31048361 116.97805882 -212.59885275 112.86410809 -207.55078125 108.85620117 C-204.11543559 106.01490322 -200.8794387 103.00302749 -197.63671875 99.94604492 C-192.63679804 95.23887871 -187.51462584 90.78901727 -182.15234375 86.49291992 C-179.72739553 84.51982541 -177.39522566 82.47732039 -175.07421875 80.38354492 C-170.41496488 76.20174109 -165.5557144 72.31639072 -160.63671875 68.44604492 C-159.55169937 67.58064069 -158.46708442 66.71472922 -157.3828125 65.84838867 C-149.32503248 59.4318182 -141.10957166 53.30342113 -132.63671875 47.44604492 C-131.9509375 46.97021973 -131.26515625 46.49439453 -130.55859375 46.00415039 C-119.60897158 38.44428311 -108.40524108 31.65155783 -96.63671875 25.44604492 C-95.96962891 25.09058594 -95.30253906 24.73512695 -94.61523438 24.36889648 C-76.47758341 14.75864858 -57.71502135 7.78506621 -37.63671875 3.44604492 C-36.43031738 3.17606689 -35.22391602 2.90608887 -33.98095703 2.62792969 C-22.67177212 0.26419407 -11.52720548 -0.04803002 0 0 Z " fill="#33302C" transform="translate(1197.63671875,554.553955078125)"/>
<path d="M0 0 C0.70527832 0.54978516 1.41055664 1.09957031 2.13720703 1.66601562 C10.54015842 8.26431932 18.58347256 15.17366462 26.36499023 22.49243164 C27.5830282 23.61552921 28.81695847 24.72143836 30.05883789 25.81811523 C37.22880758 32.1580874 44.00529036 38.85252127 50.76000977 45.62963867 C52.69109547 47.56610549 54.62749882 49.49713956 56.56445312 51.42773438 C62.04566658 56.90599734 67.49468452 62.36119782 72.51586914 68.27075195 C75.19058833 71.3872244 78.05036646 74.33250567 80.875 77.3125 C85.70269847 82.44006341 90.26295674 87.67949054 94.65625 93.1875 C97.50173365 96.60208038 100.51588233 99.82790507 103.5625 103.0625 C107.85531072 107.63056932 111.94532661 112.25113421 115.796875 117.203125 C118.11065733 120.14047987 120.49000483 123.01474358 122.88110352 125.88916016 C129.35803677 133.68178886 135.60547772 141.61432808 141.72265625 149.69140625 C144.50698142 153.36564491 147.33646157 157.00228467 150.17993164 160.63085938 C161.63300398 175.25464615 172.55025148 190.19168127 182.97265625 205.56640625 C185.20536657 208.8531193 187.47744316 212.10589221 189.80249023 215.32788086 C193.51054269 220.47392298 197.1439647 225.64725204 200.6484375 230.93359375 C201.07717667 231.57866379 201.50591583 232.22373383 201.94764709 232.88835144 C203.29999661 234.92453447 204.65031457 236.96205026 206 239 C206.64680222 239.97607208 206.64680222 239.97607208 207.30667114 240.97186279 C213.10779232 249.73051238 218.87023565 258.51405707 224.60107422 267.31884766 C226.0443979 269.53634024 227.49375571 271.74922761 228.94970703 273.95849609 C240.06990494 290.86675863 245.58181586 306.3972289 243 327 C241.27735834 334.11071703 237.99706798 339.92402804 234 346 C233.4225 346.886875 232.845 347.77375 232.25 348.6875 C223.10224618 358.08935809 211.45142559 362.992691 198.46459961 363.29248047 C182.93365181 363.41863577 169.51295683 359.59426404 157.81396484 348.88330078 C150.97308053 341.78093449 145.89083033 332.85935339 140.75 324.5 C139.43253466 322.37745332 138.11482353 320.25505919 136.796875 318.1328125 C135.531187 316.08858067 134.2655584 314.04431206 133 312 C124.36449761 298.07328979 115.31415012 284.48191569 106 271 C105.33919434 270.03980957 104.67838867 269.07961914 103.99755859 268.09033203 C91.79983989 250.37101227 79.23442831 232.96062658 66 216 C65.57686523 215.45601562 65.15373047 214.91203125 64.71777344 214.3515625 C57.83296693 205.5047645 50.81103348 196.77391154 43.71337891 188.09716797 C41.95456334 185.94438574 40.20183056 183.78674069 38.44921875 181.62890625 C32.2912005 174.07126202 26.026541 166.69004471 19.37890625 159.55859375 C17.3760414 157.40444518 15.42400168 155.22420052 13.5 153 C6.86973177 145.36803657 0.03140291 137.94570064 -7.17578125 130.85546875 C-9.01389838 128.98586353 -10.72985688 127.05149393 -12.4375 125.0625 C-18.02293744 118.58847024 -24.10264705 112.67348117 -30.6015625 107.125 C-32.53680783 105.41038525 -34.40984157 103.66557599 -36.2734375 101.875 C-55.5078957 83.43188174 -78.30739207 65.0035321 -106.34765625 65.40795898 C-130.25497536 66.58732479 -150.56377978 83.60429643 -167.19140625 99.3671875 C-169.27858931 101.32374019 -171.38138057 103.18807852 -173.5546875 105.04296875 C-178.90916126 109.70452547 -183.8926018 114.74299084 -188.90014648 119.76977539 C-190.5592732 121.43426277 -192.22368051 123.09333447 -193.88867188 124.75195312 C-198.89566852 129.75581666 -203.81954233 134.78675874 -208.41870117 140.17358398 C-211.29097099 143.49108445 -214.35072188 146.63420591 -217.375 149.8125 C-222.3919295 155.12468743 -227.20412874 160.51026317 -231.76171875 166.2265625 C-234.439905 169.54508299 -237.21372124 172.77222729 -240 176 C-245.09921633 181.92197919 -250.07814815 187.92945015 -255 194 C-256.04246664 195.27254691 -257.08547223 196.54465243 -258.12890625 197.81640625 C-263.76268212 204.6955431 -269.29216807 211.61413901 -274.57421875 218.76953125 C-276.40990049 221.2387461 -278.29838612 223.66098288 -280.20703125 226.07421875 C-287.48522548 235.28321699 -294.33072285 244.66654673 -300.88671875 254.40234375 C-303.22516354 257.87449298 -305.61869094 261.29874774 -308.05810547 264.70043945 C-321.86634815 283.96599292 -334.89873897 303.85866896 -347.45703125 323.95703125 C-350.05918352 328.11426258 -352.72917127 332.22375167 -355.4375 336.3125 C-356.02192871 337.20219482 -356.02192871 337.20219482 -356.61816406 338.10986328 C-364.76066042 350.31655804 -375.90239779 358.81869852 -390.18359375 362.57421875 C-404.30669062 364.70933326 -418.10152276 363.70350485 -430.25 355.8125 C-438.80705364 349.35693787 -446.10096055 341.05579791 -448.61328125 330.3984375 C-449.16696969 325.53269063 -449.22469284 320.7062722 -449.25 315.8125 C-449.270625 314.83474609 -449.29125 313.85699219 -449.3125 312.84960938 C-449.36792624 302.36712247 -446.88729532 293.58704131 -441.625 284.5625 C-440.97144531 283.41672485 -440.97144531 283.41672485 -440.3046875 282.24780273 C-434.91179696 272.92480534 -428.9710233 263.95879841 -423 255 C-421.87699394 253.31015508 -420.75399076 251.62030826 -419.631073 249.93040466 C-415.46943394 243.66935533 -411.29617325 237.41614953 -407.1159668 231.16748047 C-405.70050829 229.04862058 -404.28792749 226.92783559 -402.87817383 224.80517578 C-399.09448483 219.10884787 -395.27267124 213.45010732 -391.3125 207.875 C-390.81194092 207.16835205 -390.31138184 206.4617041 -389.7956543 205.73364258 C-378.31250805 189.55341128 -366.59715504 173.57604368 -354.45556641 157.88232422 C-353.42035703 156.5436016 -352.38629821 155.20398893 -351.35302734 153.86376953 C-344.80177645 145.36855987 -338.21768375 136.92913925 -331.296875 128.73046875 C-328.97623647 125.9717505 -326.70469755 123.17772525 -324.4375 120.375 C-320.83885417 115.96049246 -317.07849938 111.73143357 -313.2421875 107.5234375 C-310.95484096 104.94917642 -308.78451729 102.30710511 -306.625 99.625 C-302.53026437 94.5638495 -298.20819338 89.78056797 -293.7734375 85.01953125 C-291.6627814 82.74408266 -289.61188183 80.42304398 -287.57421875 78.08203125 C-276.44400247 65.31900201 -264.45785628 53.35470718 -252.5 41.375 C-251.84434052 40.71675232 -251.18868103 40.05850464 -250.51315308 39.38031006 C-243.85137905 32.69781917 -237.19752844 26.11006858 -230 20 C-228.26654912 18.40046378 -226.53691609 16.79677225 -224.8125 15.1875 C-218.82186497 9.73922699 -212.51575478 4.79441557 -206 0 C-205.34725098 -0.48259277 -204.69450195 -0.96518555 -204.02197266 -1.46240234 C-183.81707673 -16.31627357 -162.67329975 -27.83936471 -138.10449219 -33.49902344 C-136.12172478 -33.97102329 -134.15732913 -34.51836942 -132.1953125 -35.0703125 C-85.78823074 -46.61362496 -36.2921918 -28.34263182 0 0 Z " fill="#458575" transform="translate(1304,876)"/>
</svg>
